<?xml version="1.0" encoding="UTF-8"?>
<svg width="600" height="400" viewBox="0 0 600 400" fill="none" xmlns="http://www.w3.org/2000/svg">
  <!-- Background -->
  <rect width="600" height="400" rx="20" fill="#F5F7FA"/>
  
  <!-- Growth Chart -->
  <path d="M100,300 L500,300" stroke="#E0E5EC" stroke-width="3"/>
  <path d="M100,250 L500,250" stroke="#E0E5EC" stroke-width="2"/>
  <path d="M100,200 L500,200" stroke="#E0E5EC" stroke-width="2"/>
  <path d="M100,150 L500,150" stroke="#E0E5EC" stroke-width="2"/>
  <path d="M100,100 L500,100" stroke="#E0E5EC" stroke-width="2"/>
  
  <!-- Y-axis labels -->
  <text x="80" y="305" font-family="Roboto" font-size="12" fill="#7F8C8D">0</text>
  <text x="80" y="255" font-family="Roboto" font-size="12" fill="#7F8C8D">20</text>
  <text x="80" y="205" font-family="Roboto" font-size="12" fill="#7F8C8D">40</text>
  <text x="80" y="155" font-family="Roboto" font-size="12" fill="#7F8C8D">60</text>
  <text x="80" y="105" font-family="Roboto" font-size="12" fill="#7F8C8D">80</text>
  
  <!-- X-axis labels -->
  <text x="140" y="320" font-family="Roboto" font-size="12" fill="#7F8C8D">Oca</text>
  <text x="200" y="320" font-family="Roboto" font-size="12" fill="#7F8C8D">Şub</text>
  <text x="260" y="320" font-family="Roboto" font-size="12" fill="#7F8C8D">Mar</text>
  <text x="320" y="320" font-family="Roboto" font-size="12" fill="#7F8C8D">Nis</text>
  <text x="380" y="320" font-family="Roboto" font-size="12" fill="#7F8C8D">May</text>
  <text x="440" y="320" font-family="Roboto" font-size="12" fill="#7F8C8D">Haz</text>
  
  <!-- Green line (Income) -->
  <path d="M140,280 L200,260 L260,240 L320,200 L380,180 L440,150" stroke="#2ECC71" stroke-width="3" fill="none"/>
  
  <!-- Red line (Expense) -->
  <path d="M140,290 L200,270 L260,250 L320,230 L380,240 L440,220" stroke="#E74C3C" stroke-width="3" fill="none"/>
  
  <!-- Line Points (Income) -->
  <circle cx="140" cy="280" r="5" fill="#2ECC71"/>
  <circle cx="200" cy="260" r="5" fill="#2ECC71"/>
  <circle cx="260" cy="240" r="5" fill="#2ECC71"/>
  <circle cx="320" cy="200" r="5" fill="#2ECC71"/>
  <circle cx="380" cy="180" r="5" fill="#2ECC71"/>
  <circle cx="440" cy="150" r="5" fill="#2ECC71"/>
  
  <!-- Line Points (Expense) -->
  <circle cx="140" cy="290" r="5" fill="#E74C3C"/>
  <circle cx="200" cy="270" r="5" fill="#E74C3C"/>
  <circle cx="260" cy="250" r="5" fill="#E74C3C"/>
  <circle cx="320" cy="230" r="5" fill="#E74C3C"/>
  <circle cx="380" cy="240" r="5" fill="#E74C3C"/>
  <circle cx="440" cy="220" r="5" fill="#E74C3C"/>
  
  <!-- Wallet Icon -->
  <rect x="250" y="20" width="100" height="70" rx="10" fill="#3498DB"/>
  <rect x="240" y="40" width="120" height="70" rx="10" fill="#2980B9"/>
  <circle cx="300" cy="75" r="20" fill="#ECF0F1"/>
  <path d="M290,75 L310,75 M300,65 L300,85" stroke="#7F8C8D" stroke-width="3"/>
  
  <!-- Legend -->
  <circle cx="150" cy="360" r="5" fill="#2ECC71"/>
  <text x="160" y="365" font-family="Roboto" font-size="14" fill="#2C3E50">Gelir</text>
  
  <circle cx="220" cy="360" r="5" fill="#E74C3C"/>
  <text x="230" y="365" font-family="Roboto" font-size="14" fill="#2C3E50">Gider</text>
  
  <!-- Title -->
  <text x="300" y="380" font-family="Roboto" font-weight="bold" font-size="16" text-anchor="middle" fill="#2C3E50">Kişisel Finans Yönetimi</text>
</svg> 